<?xml version="1.0" standalone="no"?><!DOCTYPE svg PUBLIC "-//W3C//DTD SVG 1.1//EN" "http://www.w3.org/Graphics/SVG/1.1/DTD/svg11.dtd">
<svg class="icon" viewBox="0 0 1024 1024" version="1.1" xmlns="http://www.w3.org/2000/svg" width="48" height="48">
    <defs>
        <style type="text/css"></style>
    </defs>
    <path d="M376.832 80.896C187.392 142.336 61.44 313.344 61.44 513.024c0 290.816 277.504 506.88 558.08 434.176C842.752 888.832 993.28 665.6 955.392 445.44 908.288 168.96 635.904-2.048 376.832 80.896zM624.64 134.144c103.424 25.6 214.016 131.072 256 241.664 32.768 87.04 26.624 220.16-15.36 305.152-37.888 77.824-106.496 146.432-184.32 185.344-56.32 26.624-70.656 29.696-168.96 29.696-95.232 0-114.688-3.072-165.888-27.648-157.696-73.728-253.952-251.904-225.28-416.768 41.984-239.616 264.192-378.88 503.808-317.44z"
          fill="#813c85"></path>
    <path d="M462.848 227.328L460.8 286.72h-35.84c-19.456 0-35.84 4.096-35.84 10.24 0 5.12 11.264 10.24 24.576 10.24 14.336 0 27.648 3.072 29.696 7.168 2.048 5.12-17.408 91.136-43.008 192.512l-47.104 184.32-32.768 3.072c-68.608 7.168-30.72 22.528 53.248 22.528h86.016l4.096 64.512 3.072 63.488 2.048-64.512 2.048-63.488 44.032 1.024c56.32 2.048 123.904-25.6 155.648-64.512 45.056-54.272 26.624-134.144-34.816-153.6-9.216-3.072-1.024-12.288 23.552-26.624 21.504-12.288 41.984-20.48 47.104-17.408 19.456 12.288 35.84-73.728 20.48-112.64-14.336-38.912-66.56-56.32-167.936-56.32h-87.04l-4.096-59.392-3.072-58.368-2.048 58.368z m190.464 96.256c52.224 36.864 10.24 136.192-67.584 157.696C532.48 495.616 460.8 494.592 460.8 478.208c0-6.144 4.096-28.672 9.216-48.128 6.144-19.456 15.36-55.296 21.504-79.872l11.264-43.008h63.488c40.96 0 71.68 6.144 87.04 16.384z m-24.576 211.968c19.456 26.624 19.456 30.72 6.144 70.656-22.528 64.512-66.56 90.112-154.624 90.112-41.984 0-70.656-4.096-70.656-10.24s10.24-50.176 21.504-98.304l22.528-87.04 76.8 3.072c70.656 3.072 78.848 5.12 98.304 31.744z"
          fill="#d81e06"></path>
    <path d="M227.328 421.888c-7.168 7.168-12.288 18.432-12.288 25.6 0 18.432-10.24 16.384-33.792-5.12-19.456-16.384-20.48-16.384-8.192 5.12 6.144 13.312 16.384 23.552 21.504 23.552 19.456 0 10.24 22.528-10.24 27.648-19.456 5.12-20.48 6.144-3.072 19.456 12.288 9.216 14.336 16.384 7.168 21.504-6.144 5.12-14.336 17.408-17.408 28.672-7.168 20.48-7.168 20.48 8.192 0 13.312-16.384 19.456-18.432 35.84-7.168 24.576 15.36 58.368 16.384 66.56 2.048 12.288-20.48 46.08-11.264 47.104 12.288 1.024 19.456 2.048 19.456 6.144 5.12 3.072-10.24-3.072-27.648-13.312-38.912-16.384-18.432-16.384-19.456 7.168-28.672 24.576-10.24 24.576-10.24 2.048-10.24C317.44 501.76 307.2 496.64 307.2 491.52v-18.432c0-4.096 6.144-7.168 12.288-7.168 7.168 0 14.336-9.216 16.384-19.456 4.096-19.456 3.072-19.456-14.336-2.048-17.408 18.432-18.432 17.408-37.888-8.192-20.48-28.672-36.864-33.792-56.32-14.336zM750.592 427.008c-1.024 10.24-5.12 37.888-9.216 61.44-4.096 29.696-3.072 49.152 6.144 59.392 8.192 10.24 9.216 15.36 1.024 15.36-6.144 0-17.408 14.336-26.624 30.72-18.432 34.816-6.144 71.68 22.528 71.68 15.36 0 15.36-1.024-1.024-13.312-17.408-12.288-17.408-16.384-2.048-51.2 15.36-37.888 43.008-50.176 53.248-24.576 3.072 8.192-1.024 27.648-7.168 44.032-7.168 16.384-13.312 38.912-14.336 49.152-1.024 10.24-10.24 25.6-20.48 32.768-11.264 8.192-14.336 14.336-9.216 14.336 23.552 0 44.032-28.672 59.392-80.896 20.48-68.608 20.48-72.704 1.024-72.704-16.384 0-20.48-12.288-8.192-23.552 3.072-4.096 12.288-2.048 19.456 4.096 16.384 13.312 45.056 5.12 44.032-13.312 0-10.24-2.048-10.24-6.144-1.024-2.048 7.168-9.216 13.312-15.36 13.312-10.24 0-6.144-45.056 8.192-100.352 4.096-12.288 2.048-22.528-4.096-22.528-5.12 0-15.36 21.504-22.528 48.128-13.312 54.272-26.624 74.752-47.104 74.752-17.408 0-19.456-53.248-3.072-83.968 8.192-15.36 8.192-24.576-3.072-34.816-12.288-12.288-14.336-11.264-15.36 3.072zM696.32 695.296c0 6.144 5.12 13.312 10.24 16.384 6.144 3.072 10.24-1.024 10.24-9.216 0-9.216-4.096-16.384-10.24-16.384-5.12 0-10.24 4.096-10.24 9.216z"
          fill="#d81e06"></path>
</svg>